<svg xmlns="http://www.w3.org/2000/svg" viewBox="0 0 198.43 79.37" class="h-12 py-2"><defs><style>.cls-2{fill:#0aa550}</style></defs><path d="M144.52 63.46v-21.6h5v17.25H156v4.35Zm23.3 0a15 15 0 0 1 .13-2.4 5.2 5.2 0 0 1-4.86 2.75 4.38 4.38 0 0 1-4.64-4.7c0-4 3.74-5.6 9-5.6V53c0-1.47-.7-2.11-2.5-2.11a14.41 14.41 0 0 0-4.83 1l-.73-3.65a19.79 19.79 0 0 1 6.11-1.09c5.28 0 6.85 2 6.85 5.6v6.91c0 1.15 0 2.53.12 3.78Zm-.45-6.85c-3.39 0-4.29.8-4.29 2a1.48 1.48 0 0 0 1.57 1.51 2.91 2.91 0 0 0 2.72-3Zm13.92-10.24a25.73 25.73 0 0 1-.22 3.17 4.89 4.89 0 0 1 4.51-2.37c3.81 0 5.82 2.85 5.82 7.46 0 5.21-3.07 9.15-8.8 9.15a25.56 25.56 0 0 1-6.2-.8V40.1h4.86Zm0 13.28a5.67 5.67 0 0 0 1.7.26c1.88 0 3.29-1.22 3.29-4.77 0-2.66-.7-3.87-2.17-3.87-1.67 0-2.82 1.88-2.82 4.44ZM98.61 18.72s.81 7.45-4.28 8.19H88v28.16H77.75v-28.2h-9.53v-8.15Zm-58.14.77a31.13 31.13 0 0 0-9.32-1.66c-4.72 0-19 .89-19.8 18.88 0 0-1 19.53 19.45 18.67 0 0 2.53-.13 3.84-.31l-.76-7.91S22.14 50.3 22.4 36.74c0 0-.88-10.53 8.76-10.71 0 0 2.4-.29 7.87 1.52Z" class="cls-2"></path><circle cx="54.72" cy="17.1" r="5.77" class="cls-2"></circle><path d="M59.7 32.87v-4.52h-10v4.52s.43 2.16-4.09 7.32c0 0-5.26 5-5 11.38s3.37 9.37 10.22 11.15 16.91-1.6 17.46-1.87l-1.39-7.42s-5.65 2.39-10 1.88c0 0-5.87-.21-5.64-5.05 0 0-.44-2.58 3.43-6.52s.28-.32.28-.32S59 40 59.7 32.87Zm58.55-15.03h-.07c-19.66 0-18 19-18 19-.54 18.65 14.07 19.24 17.39 19.16h2a1 1 0 0 0 .17 0c4.4-.15 16.92-2.08 16.58-19.05.02-.05 2.02-19.49-18.07-19.11Zm0 29.94c-8.84.23-7.75-10.93-7.75-10.93-.37-11.3 7.22-10.69 7.7-10.64s8.13-1 7.75 10.63c.05.01 1.14 11.16-7.7 10.94Z" class="cls-2"></path></svg>